<svg width="900" height="620" viewBox="0 0 900 620" fill="none" xmlns="http://www.w3.org/2000/svg"><rect width="900" height="620" rx="36" fill="#0B0F17"/><rect x="28" y="28" width="844" height="64" rx="18" fill="#141B29"/><circle cx="64" cy="60" r="18" fill="#F6C343"/><rect x="96" y="48" width="146" height="24" rx="8" fill="#263246"/><rect x="680" y="44" width="150" height="32" rx="12" fill="#F6C343"/><rect x="28" y="116" width="548" height="360" rx="22" fill="#10151F"/><path d="M70 393C122 328 168 357 213 297C259 235 305 270 350 214C395 159 448 180 526 117" stroke="#00C076" stroke-width="6"/><path d="M72 405H534" stroke="#263246"/><path d="M72 332H534" stroke="#263246"/><path d="M72 259H534" stroke="#263246"/><path d="M72 186H534" stroke="#263246"/><g stroke-width="5"><path d="M130 245V328" stroke="#F6465D"/><path d="M164 210V278" stroke="#00C076"/><path d="M198 255V321" stroke="#F6465D"/><path d="M232 190V255" stroke="#00C076"/><path d="M266 222V300" stroke="#F6465D"/><path d="M300 178V245" stroke="#00C076"/><path d="M334 200V280" stroke="#00C076"/><path d="M368 154V234" stroke="#00C076"/><path d="M402 176V266" stroke="#F6465D"/><path d="M436 132V208" stroke="#00C076"/></g><rect x="600" y="116" width="272" height="170" rx="22" fill="#10151F"/><rect x="628" y="144" width="96" height="18" rx="6" fill="#F6465D"/><rect x="628" y="178" width="196" height="14" rx="5" fill="#263246"/><rect x="628" y="209" width="164" height="14" rx="5" fill="#263246"/><rect x="628" y="240" width="218" height="14" rx="5" fill="#263246"/><rect x="600" y="306" width="272" height="170" rx="22" fill="#10151F"/><rect x="628" y="334" width="106" height="18" rx="6" fill="#00C076"/><rect x="628" y="370" width="210" height="34" rx="10" fill="#0B0F17"/><rect x="628" y="418" width="210" height="34" rx="10" fill="#0B0F17"/><rect x="28" y="500" width="844" height="92" rx="22" fill="#10151F"/><circle cx="76" cy="546" r="24" fill="#F6C343"/><rect x="118" y="526" width="128" height="16" rx="6" fill="#fff" opacity=".7"/><rect x="118" y="554" width="210" height="14" rx="6" fill="#263246"/><rect x="620" y="526" width="190" height="40" rx="12" fill="#F6C343"/></svg>
